<?xml version="1.0" encoding="utf-8"?>
<svg version="1.1" id="Ebene_1" xmlns="http://www.w3.org/2000/svg" xmlns:xlink="http://www.w3.org/1999/xlink" x="0px" y="0px"
	 viewBox="0 0 158.2 240" style="enable-background:new 0 0 158.2 240;" xml:space="preserve">
<style type="text/css">
	path{fill:#ff8800;}
</style>
<g>
	<path d="M39.3,240c-13-13.8-25.9-27.6-39.2-41.9c25-24.9,51.4-51.4,78.2-78.1C51.5,93.2,25,66.8,0,41.8C13.4,27.6,26.3,13.8,39.3,0
		c0.3,0,0.7,0,1,0c1.1,1.4,2.1,2.9,3.4,4.2c36.8,37.2,73.6,74.4,110.3,111.5c1.3,1.3,2.5,2.6,4.1,4.3c-1.3,1.4-2.5,2.7-3.8,4
		c-36.8,37.2-73.6,74.3-110.3,111.5c-1.4,1.4-2.5,3-3.7,4.5C40,240,39.7,240,39.3,240z"/>
</g>
</svg>
