<?xml version="1.0" encoding="utf-8"?>
<svg version="1.1" id="Ebene_1" xmlns="http://www.w3.org/2000/svg" xmlns:xlink="http://www.w3.org/1999/xlink" x="0px" y="0px"
	 viewBox="0 0 73.1 109.5" style="enable-background:new 0 0 73.1 109.5;" xml:space="preserve">
<style type="text/css">
	.st0{fill:#FF8800;}
</style>
<g>
	<path class="st0" d="M48.7,109.5c4.7-8.3,3.8-16-2-23.2c-0.2,0-0.5,0.1-0.7,0.1c0.1,0.5,0.2,1.1,0.4,1.6c0.7,2.6,0.1,5.2-1.6,6.3
		c-2.1,1.3-4.2,0.6-4.8-1.7c-0.3-1.3-0.3-2.8-0.2-4.2c0.6-5.6-0.6-10.8-3.5-15.6c-0.3-0.5-0.7-0.8-1.3-1.1c0.1,0.5,0.1,1,0.3,1.5
		c1.4,5.2,0.2,9.8-3.3,13.9c-1.9,2.3-4.1,4.5-5.4,7.1c-2.3,4.7-3.6,8.1-0.8,12.6c0.2,0.4,0.5,0.7,0.5,1.5c-1-0.3-2.1-0.6-3-1
		c-10.1-4.6-13.6-13-11.2-23.7c0.7-3.1,2.4-5.9,3.7-8.8c1.3-2.9,2.5-5.9,2.2-9.2c-0.1-1.7-0.6-3.3-0.9-4.9c-0.1-0.3-0.2-0.7-0.3-1.5
		c2.6,1.8,4,4,4.8,6.5c0.5,1.4,0.7,2.9,1.2,4.4c0.5,1.5,1.4,2.6,3.2,2.4c1.4-0.1,3.1-1.9,2.9-3.5c-0.3-2.7-1.1-5.3-1.6-8
		C25.1,50,30.6,38.4,41.8,34.5c-0.5,1.2-1,2.2-1.3,3.3c-1.6,5.7-0.7,11,2.8,15.6c3.4,4.5,7.4,8.6,11.3,12.7
		c6.9,7.3,10,15.7,8.2,25.7c-1.3,6.8-5.3,11.9-10.7,16"/>
</g>
<g>
	<path class="st0" d="M52.4,106.8C59,95,57.8,84,49.7,73.7c-0.3,0-0.6,0.1-1,0.1c0.2,0.8,0.3,1.6,0.5,2.3c1,3.7,0.1,7.4-2.3,8.9
		C44,86.9,41,86,40.2,82.6c-0.5-1.9-0.5-4-0.3-5.9c0.8-8-0.8-15.4-4.9-22.2c-0.4-0.6-0.9-1.2-1.9-1.6c0.1,0.7,0.2,1.5,0.4,2.2
		c1.9,7.4,0.3,14-4.6,19.8c-2.7,3.2-5.8,6.3-7.6,10c-3.3,6.7-2.6,13.6,1.3,20.1c0.3,0.5,0.6,1,0.7,2.1c-1.4-0.5-2.9-0.8-4.3-1.4
		C4.7,99.2-2.6,85.1,0.8,69.8c1-4.3,3.4-8.4,5.2-12.5c1.8-4.2,3.5-8.4,3.1-13.1c-0.2-2.4-0.9-4.7-1.3-7c-0.1-0.5-0.2-1-0.5-2.1
		c3.7,2.6,5.6,5.7,6.8,9.3c0.7,2,1,4.2,1.7,6.2c0.7,2.1,2,3.7,4.5,3.5c2-0.2,4.4-2.7,4.1-4.9c-0.5-3.8-1.5-7.6-2.3-11.4
		C19.2,22.1,27,5.5,42.8,0c-0.7,1.7-1.4,3.1-1.8,4.7c-2.3,8-0.9,15.7,4,22.2c4.8,6.4,10.4,12.2,15.9,18.1
		C70.6,55.4,75,67.4,72.4,81.5c-1.8,9.6-7.5,16.9-15.2,22.7c-1.3,1-2.6,1.8-4,2.6C53.1,107,52.9,106.9,52.4,106.8z"/>
</g>
<g>
	<path class="st0" d="M24.2,61.2c1.7-2.7,4.2-4.8,6.4-7.1c2.2-2.4,4.3-4.8,5.1-8c0.4-1.6,0.5-3.3,0.7-4.9c0.1-0.4,0.1-0.7,0.2-1.5
		c1.8,2.6,2.4,5.1,2.4,7.7c0,1.5-0.3,3-0.3,4.5c0,1.6,0.5,2.9,2.2,3.3c1.4,0.3,3.5-0.7,3.9-2.3c0.6-2.7,0.7-5.4,1.1-8.1
		c1.6-11,10.7-20.2,22.5-20.2c-0.8,1-1.7,1.8-2.3,2.7c-3.4,4.8-4.3,10.2-2.5,15.7c1.8,5.4,4.1,10.5,6.4,15.7
		c4.1,9.2,4.3,18.2-0.7,26.9"/>
</g>
</svg>
