<?xml version="1.0" encoding="utf-8"?>
<!-- Generator: Adobe Illustrator 22.1.0, SVG Export Plug-In . SVG Version: 6.00 Build 0)  -->
<svg version="1.1" id="Ebene_1" xmlns="http://www.w3.org/2000/svg" xmlns:xlink="http://www.w3.org/1999/xlink" x="0px" y="0px"
	 viewBox="0 0 459.1 449" style="enable-background:new 0 0 459.1 449;" xml:space="preserve">
<style type="text/css">
	.st0{fill:#FF8800;}
</style>
<g>
	<path class="st0" d="M272.5,331.1c10.7-2.2,20.9-3.8,30.8-6.5c26.5-7.2,48.6-20.9,60.5-46.5c13.5-28.9,16.1-59.2,8.3-90.2
		c-2.9-11.3-8.7-21.2-16.4-30c-1.1-1.2-1.6-3.9-1.1-5.5c6.3-18.9,4.4-37.5-2.2-55.8c-0.5-1.5-3.4-3-5.2-3
		c-12.9-0.2-24.4,4.6-35.6,10.2c-6.6,3.2-12.7,7.4-19.2,10.7c-2.3,1.1-5.4,1.9-7.8,1.4c-36-8.5-72-8.7-107.9,0.1
		c-3.7,0.9-6.2,0.2-9.2-1.8c-13.9-9-28.3-16.8-44.9-19.9c-12.7-2.4-14.1-1.6-17.2,10.6c-4.1,16.1-4.9,32.2,0.8,48.2
		c0.4,1.2,0.1,3.3-0.7,4.3c-20.3,24.4-23.9,52.7-19.8,82.9c2.5,18.1,7.7,35.1,18.7,50c14.4,19.4,34.6,29.7,57.5,35.4
		c8.4,2.1,16.9,3.5,26,5.3c-6.5,6.3-11.9,13.3-12.8,22c-0.8,7.9-5.3,10.2-11.9,12c-25,7.1-43.3,0.2-56.9-21.6
		c-7.5-12.1-17.8-20.8-32.2-23.2c-3.5-0.6-7.3-0.1-10.8,0.7c-3.6,0.8-4.4,3.5-1.9,6.4c1.6,1.9,3.5,3.6,5.6,4.9
		c12.4,7.4,21.2,18.2,26.1,31.3c10.6,28.4,36.7,40.1,67.5,36.7c4.1-0.5,8.2-1.1,12.6-1.7c0,14.2,0.4,28-0.1,41.8
		c-0.3,7.2-8.2,10.6-16.8,7.7c-16.5-5.5-32.2-12.8-46.8-22.2C50.4,388.2,13.7,335.2,2.9,266C-15.4,148.9,56.1,41.9,162.7,10.8
		c85.9-25,163-6.5,228.3,55.1c38.4,36.2,60.3,81.6,66.4,134.2c6.8,59.3-6.3,114-40.9,162.8c-28.4,40.1-66.3,67.8-112.8,83.8
		c-10,3.4-16.3-1.2-16.4-11.9c-0.1-19.3-0.1-38.7,0-58C287.4,360,284.2,344.4,272.5,331.1z"/>
</g>
</svg>
