<?xml version="1.0" encoding="utf-8"?>
<!-- Generator: Adobe Illustrator 22.1.0, SVG Export Plug-In . SVG Version: 6.00 Build 0)  -->
<svg version="1.1" id="Ebene_1" xmlns="http://www.w3.org/2000/svg" xmlns:xlink="http://www.w3.org/1999/xlink" x="0px" y="0px"
	 viewBox="0 0 408 408" style="enable-background:new 0 0 408 408;" xml:space="preserve">
<style type="text/css">
	.st0{fill:#FF8800;}
</style>
<g>
	<path class="st0" d="M408,35.1c0,112.6,0,225.3,0,337.9c-0.2,0.5-0.6,0.9-0.7,1.4c-4.3,20.5-20.5,33.7-41.4,33.7
		c-108,0-215.9,0-323.9,0c-3.7,0-7.5-0.4-11-1.3c-18.8-4.7-31-21-31-41.1C0,257.9,0,150.2,0,42.5c0-1.2,0-2.4,0.1-3.6
		C0.8,27.5,5.5,18,13.9,10.3C20,4.8,27.4,2.1,35.1,0C147.7,0,260.3,0,373,0c0.6,0.2,1.1,0.6,1.8,0.7c9.7,2,17.6,6.9,24,14.5
		C403.6,21,406,27.9,408,35.1z M346.6,346.6c0.1-1.2,0.1-2.1,0.1-3c0-37.6,0.1-75.2,0-112.7c-0.1-22-8.8-40.4-25.5-54.4
		c-27.6-23.2-64.2-24-91.2,4.1c-1.8,1.8-3.3,3.9-5.7,6.7c0-8.8,0-16.3,0-23.7c-20.6,0-40.7,0-60.7,0c0,61.2,0,122.1,0,182.9
		c20.4,0,40.5,0,60.9,0c0-1.9,0-3.5,0-5c0-32.9,0-65.9,0-98.8c0-2.5,0.1-5,0.3-7.6c1.6-17.7,21.3-30.9,38.2-25.6
		c14.2,4.4,22.5,15.9,22.6,31.5c0.1,33.6,0,67.2,0,100.8c0,1.6,0,3.1,0,4.9C306.1,346.6,326.1,346.6,346.6,346.6z M122.3,163.6
		c-20.5,0-40.6,0-60.7,0c0,61.1,0,122,0,182.9c20.4,0,40.5,0,60.7,0C122.3,285.4,122.3,224.7,122.3,163.6z M128.4,91.8
		c0-20.2-16.5-36.8-36.7-36.8C71.6,55.2,54.9,72,55.1,92c0.2,20.2,16.4,36.3,36.6,36.5C112,128.5,128.4,112.2,128.4,91.8z"/>
</g>
</svg>
