<?xml version="1.0" encoding="utf-8"?>
<!-- Generator: Adobe Illustrator 22.1.0, SVG Export Plug-In . SVG Version: 6.00 Build 0)  -->
<svg version="1.1" id="Ebene_1" xmlns="http://www.w3.org/2000/svg" xmlns:xlink="http://www.w3.org/1999/xlink" x="0px" y="0px"
	 viewBox="0 0 354.7 288.8" style="enable-background:new 0 0 354.7 288.8;" xml:space="preserve">
<style type="text/css">
	.st0{fill:#eee;}
</style>
<g>
	<path class="st0" d="M354.7,34.6c-2.4,3.7-5.1,7.3-7.9,10.7c-8,9.9-17.2,18.6-27.5,26.2c-0.4,0.3-0.6,0.6-0.6,1.2
		c0.2,3.8,0.2,7.6,0.2,11.4c-0.1,3.1-0.2,6.2-0.4,9.2c-0.2,2.8-0.4,5.7-0.7,8.5c-2,19.2-6.6,37.8-13.7,55.8
		c-9.1,23.2-21.8,44.3-38.2,63c-11.3,13-24.1,24.3-38.4,34c-19,12.8-39.7,22-61.9,27.6c-6.8,1.7-13.8,3.1-20.7,4.1
		c-4.6,0.7-9.2,1.2-13.8,1.6c-2.9,0.3-5.9,0.4-8.8,0.6c-6.7,0.4-13.5,0.3-20.2,0.1c-5.2-0.2-10.3-0.7-15.5-1.3
		c-8.1-1-16.1-2.4-23.9-4.3c-17.7-4.3-34.6-10.9-50.6-19.6c-3.9-2.1-7.7-4.4-11.5-6.8c-0.2-0.1-0.3-0.2-0.6-0.4
		c39.8,3.9,75.6-5.9,107.6-30.2c-0.9-0.1-1.6-0.2-2.3-0.3C93.7,225.1,83,222,73,216.3c-15.9-9.2-26.9-22.5-33-39.9
		c0-0.1,0-0.1-0.1-0.2c-0.3-1-0.3-1,0.7-0.8c6.2,1.1,12.5,1.4,18.8,0.9c4.2-0.4,8.3-1.1,12.4-2.1c0.1,0,0.3-0.1,0.5-0.2
		c-1.8-0.5-3.5-0.9-5.2-1.3c-11.5-3.3-21.6-9-30.3-17.2c-10.3-9.7-17.1-21.5-20.6-35.2c-1.5-5.8-2.1-11.6-2.2-17.6
		c0-1.1,0-1.1,1-0.5c8,4.3,16.5,7,25.4,8.1c1.9,0.2,3.8,0.4,5.7,0.6c0.2,0,0.5,0.1,0.5-0.2c0-0.3-0.3-0.4-0.4-0.5
		c-3.2-2.2-6.2-4.6-9-7.3C25.7,91.6,18.5,78.3,15.7,62.6c-0.9-5.1-1.3-10.3-1-15.6c0.5-11.8,3.6-22.8,9.4-33.1
		c0.4-0.6,0.5-0.6,0.9-0.1c12.9,15.7,27.8,29.3,44.7,40.6C86,65.5,103.5,74,122.2,79.9c10.1,3.2,20.3,5.6,30.8,7.3
		c3.2,0.5,6.4,0.8,9.6,1.3c2.8,0.4,5.7,0.5,8.5,0.8c1,0.1,2.1,0.1,3.1,0.2c0.5,0,0.5-0.1,0.4-0.6c-0.4-1.9-0.9-3.8-1.1-5.7
		c-0.5-4.1-0.8-8.3-0.6-12.5c0.9-21.6,9.5-39.5,25.9-53.6c10.4-8.9,22.5-14.5,36-16.3c24.6-3.3,45.9,3.9,63.5,21.5
		c0.6,0.6,1.1,0.6,1.8,0.5c15-3.1,29.1-8.4,42.5-15.9c0.8-0.5,1.6-0.9,2.4-1.3c0,0,0.1,0.1,0.1,0.1c-1.4,4.7-3.4,9.1-5.8,13.3
		c-6.1,10.7-14.4,19.3-24.8,25.9c-0.3,0.2-0.6,0.4-0.9,0.5c0.2,0.4,0.5,0.1,0.8,0.1c4.2-0.5,8.4-1.2,12.5-2.1
		c9.2-2,18.2-4.8,26.8-8.6c0.3-0.1,0.6-0.2,0.9-0.4C354.6,34.5,354.6,34.5,354.7,34.6z"/>
</g>
</svg>
