<?xml version="1.0" encoding="utf-8"?>
<!-- Generator: Adobe Illustrator 22.1.0, SVG Export Plug-In . SVG Version: 6.00 Build 0)  -->
<svg version="1.1" id="Ebene_1" xmlns="http://www.w3.org/2000/svg" xmlns:xlink="http://www.w3.org/1999/xlink" x="0px" y="0px"
	 viewBox="0 0 367.6 432.6" style="enable-background:new 0 0 367.6 432.6;" xml:space="preserve">
<style type="text/css">
	.st0{fill:#FF8800;}
</style>
<g>
	<path class="st0" d="M361.7,0c6.9,5,7.5,8.2,2.9,16.3c-44.8,79.2-89.5,158.4-134.4,237.5c-1.8,3.1-1.6,5.3,0,8.4
		c28,51,55.7,102.2,83.9,153.1c6.3,11.4,1.7,17.7-10.2,17.3c-18.1-0.6-36.3-0.5-54.5,0c-10.6,0.3-17.5-4.3-22.3-13.4
		c-10.7-20-21.6-39.8-32.5-59.6c-17.8-32.7-35.6-65.4-53.5-98.1c-1.4-2.5-1.3-4.4,0.1-6.8c45.2-80.1,90.4-160.2,135.5-240.3
		c3.7-6.5,7.9-12.3,15.6-14.4C315.6,0,338.7,0,361.7,0z"/>
	<path class="st0" d="M63.9,85.3c9.7,0,19.4,0.1,29.1,0c7.7-0.2,13.8,2.8,17.8,9.3c6.6,10.8,12.8,21.8,19.2,32.7
		c7.9,13.8,15.8,27.6,23.8,41.3c1.4,2.4,1.3,4.1,0,6.5C132.3,213,110.8,250.9,89.5,289c-5.4,9.7-12.8,14.7-24.5,14.3
		c-18.1-0.6-36.3-0.2-54.5-0.2c-6,0-9.8-1.9-10.5-6.4c-0.5-3,0.3-6.7,1.8-9.5c12.3-22.3,24.9-44.4,37.4-66.5
		c8.5-15.1,16.9-30.1,25.6-45.1c1.5-2.6,1.6-4.5,0-7.2c-12.8-21.8-25.4-43.8-38-65.7c-0.8-1.3-1.6-2.7-2.3-4
		c-3.6-7.3-0.2-13.1,8-13.3C43.1,85.2,53.5,85.3,63.9,85.3C63.9,85.3,63.9,85.3,63.9,85.3z"/>
</g>
</svg>
